<svg width="36" height="24" viewBox="0 0 36 24" fill="none" xmlns="http://www.w3.org/2000/svg">
<rect width="36" height="24" fill="white"/>
<path fill-rule="evenodd" clip-rule="evenodd" d="M18.179 16.7995C16.9949 17.7975 15.459 18.4 13.7807 18.4C10.0358 18.4 7 15.4003 7 11.7C7 7.99969 10.0358 5 13.7807 5C15.459 5 16.9949 5.6025 18.179 6.60054C19.363 5.6025 20.8989 5 22.5773 5C26.3221 5 29.358 7.99969 29.358 11.7C29.358 15.4003 26.3221 18.4 22.5773 18.4C20.8989 18.4 19.363 17.7975 18.179 16.7995Z" fill="#ED0006"/>
<path fill-rule="evenodd" clip-rule="evenodd" d="M18.1797 16.7995C19.6376 15.5706 20.5621 13.742 20.5621 11.7C20.5621 9.65804 19.6376 7.82944 18.1797 6.60054C19.3637 5.6025 20.8996 5 22.578 5C26.3228 5 29.3587 7.99969 29.3587 11.7C29.3587 15.4003 26.3228 18.4 22.578 18.4C20.8996 18.4 19.3637 17.7975 18.1797 16.7995Z" fill="#F9A000"/>
<path fill-rule="evenodd" clip-rule="evenodd" d="M18.1793 16.7995C19.6372 15.5706 20.5616 13.742 20.5616 11.7C20.5616 9.65808 19.6372 7.82949 18.1793 6.60059C16.7213 7.82949 15.7969 9.65808 15.7969 11.7C15.7969 13.742 16.7213 15.5706 18.1793 16.7995Z" fill="#FF5E00"/>
</svg>
