<svg width="36" height="24" viewBox="0 0 36 24" fill="none" xmlns="http://www.w3.org/2000/svg">
<rect width="36" height="24" fill="white"/>
<path fill-rule="evenodd" clip-rule="evenodd" d="M11.4126 16.3611H9.19284L7.52826 9.82382C7.44925 9.52311 7.28149 9.25726 7.03473 9.13196C6.4189 8.81708 5.74029 8.56649 5 8.4401V8.18842H8.57593C9.06946 8.18842 9.4396 8.56649 9.5013 9.00557L10.365 13.7211L12.5837 8.18842H14.7418L11.4126 16.3611ZM15.9755 16.3611H13.879L15.6053 8.18842H17.7017L15.9755 16.3611ZM20.4141 10.4526C20.4758 10.0124 20.846 9.7607 21.2778 9.7607C21.9564 9.69751 22.6956 9.82389 23.3125 10.1377L23.6827 8.37807C23.0658 8.12639 22.3872 8 21.7713 8C19.7366 8 18.256 9.13203 18.256 10.7032C18.256 11.8984 19.3048 12.526 20.0451 12.904C20.846 13.281 21.1544 13.5327 21.0927 13.9097C21.0927 14.4751 20.4758 14.7268 19.86 14.7268C19.1197 14.7268 18.3794 14.5383 17.7019 14.2235L17.3317 15.9842C18.072 16.2979 18.8729 16.4243 19.6132 16.4243C21.8947 16.4864 23.3125 15.3555 23.3125 13.658C23.3125 11.5203 20.4141 11.395 20.4141 10.4526ZM30.6494 16.3611L28.9848 8.18842H27.1968C26.8267 8.18842 26.4565 8.4401 26.3332 8.81708L23.2508 16.3611H25.4089L25.8396 15.1669H28.4913L28.738 16.3611H30.6494ZM27.5048 10.3894L28.1206 13.4695H26.3944L27.5048 10.3894Z" fill="#172B85"/>
</svg>
