<svg width="220" height="33" viewBox="0 0 220 33" fill="none" xmlns="http://www.w3.org/2000/svg">
<path fill-rule="evenodd" clip-rule="evenodd" d="M76.0238 1.90719C74.645 4.46693 75.0456 5.84393 77.1701 5.84393C78.246 5.84393 79.1263 6.2317 79.1263 6.70495C79.1263 7.22404 78.3869 7.38257 77.2648 7.10282C76.2413 6.84716 73.688 7.15566 71.5917 7.78744C68.4829 8.72383 61.5234 8.93675 33.8419 8.94375C3.76286 8.95152 0.0139351 9.08518 0.877025 10.1179C1.41303 10.759 2.28238 11.2836 2.809 11.2836C3.33562 11.2836 4.85913 11.8252 6.19485 12.4865C8.09318 13.4268 11.7858 13.7151 23.1382 13.8076C31.122 13.8728 37.6542 14.2171 37.6542 14.5722C37.6542 14.9281 38.3514 15.4752 39.2035 15.7884C40.6887 16.3339 40.6566 16.501 38.4242 19.8432C36.3787 22.905 35.6362 23.3028 36.0157 21.134C36.0775 20.7812 35.7527 20.7237 35.2942 21.005C34.8357 21.2863 34.662 22.1457 34.9077 22.9151C35.2371 23.947 34.8349 24.4436 33.3747 24.8073C32.2855 25.0785 31.3943 25.6154 31.3943 26.0009C31.3943 26.3855 32.7331 26.1781 34.3693 25.5401C36.4202 24.7397 37.9938 23.3114 39.4359 20.9397C40.587 19.0483 42.0792 17.5003 42.7521 17.5003C43.4259 17.5003 45.4588 18.2673 47.271 19.2052C49.0825 20.1432 52.135 21.1052 54.0537 21.3422C57.3801 21.7541 57.5718 21.9173 58.1837 24.85C58.9552 28.5505 59.5108 28.9414 64.9742 29.619C68.8084 30.0946 69.0815 30.25 67.7661 31.2058C66.3717 32.2184 66.3827 32.265 68.022 32.265C68.9649 32.265 69.7364 31.8842 69.7364 31.4195C69.7364 30.8732 70.9117 30.7326 73.062 31.0217C74.8915 31.2672 75.8594 31.2665 75.2139 31.0201C74.5683 30.773 72.9306 30.0783 71.5745 29.4753C70.2184 28.873 68.4132 28.3796 67.5642 28.3796C66.7144 28.3796 64.9194 28.1612 63.5743 27.8939C61.4584 27.4735 61.1306 27.081 61.14 24.9798C61.1587 20.5706 61.9444 19.4827 68.1464 15.2716C74.7726 10.773 78.7351 9.45663 85.2251 9.59961C89.6211 9.69597 90.1149 8.64767 86.0874 7.76879C84.4833 7.41909 83.1468 6.35215 82.0943 4.58038C80.7156 2.25999 78.563 0.404297 77.2491 0.404297C77.0207 0.404297 76.4698 1.08037 76.0238 1.90719Z" fill="black"/>
<path d="M95.326 32.1111H91.0118L89.3702 30.1096C88.5074 30.3572 87.5603 30.5017 86.5712 30.5017C81.836 30.5017 78.4688 27.324 78.4688 22.9083C78.4688 18.5133 81.836 15.3356 86.5712 15.3356C91.3064 15.3356 94.6736 18.4927 94.6736 22.9083C94.6736 25.1987 93.7897 27.1177 92.2745 28.4795L95.326 32.1111ZM82.6778 22.9083C82.6778 25.1574 84.3404 26.8082 86.5712 26.8082C88.823 26.8082 90.4435 25.1781 90.4435 22.9083C90.4435 20.6592 88.823 19.0291 86.5712 19.0291C84.3404 19.0291 82.6778 20.6799 82.6778 22.9083Z" fill="black"/>
<path d="M100.966 30.5017C97.6201 30.5017 95.3683 28.4795 95.3683 25.3638V18.9879H99.2827V25.1987C99.2827 26.3749 99.9351 27.0558 100.966 27.0558C102.019 27.0558 102.65 26.3542 102.65 25.1987V18.9879H106.564V25.3638C106.564 28.4795 104.334 30.5017 100.966 30.5017Z" fill="black"/>
<path d="M107.843 17.6054V14.3452H111.716V17.6054H107.843ZM107.822 30.1302V18.9879H111.737V30.1302H107.822Z" fill="black"/>
<path d="M124.695 30.1302H120.065L117.224 25.4257V30.1302H113.309V14.9642H117.224V23.3623L119.939 18.9879H124.337L120.781 24.3115L124.695 30.1302Z" fill="black"/>
<path d="M144.181 15.6864H148.517L143.971 30.1302H140.393L137.573 23.1766L134.795 30.1302H131.217L126.608 15.6864H130.965L133.364 24.0226L136.879 15.769H138.268L141.845 24.0226L144.181 15.6864Z" fill="black"/>
<path d="M159.419 24.4559C159.419 24.8067 159.398 25.1368 159.356 25.4876H150.917C151.169 26.7669 151.99 27.4272 153.232 27.4272C154.137 27.4272 154.915 27.0351 155.273 26.3749H159.188C158.388 28.9128 156.073 30.5017 153.232 30.5017C149.675 30.5017 147.065 27.9637 147.065 24.5591C147.065 21.1544 149.654 18.6371 153.232 18.6371C156.894 18.6371 159.419 21.1957 159.419 24.4559ZM153.232 21.6497C152.095 21.6497 151.296 22.248 150.98 23.3623H155.568C155.231 22.248 154.41 21.6497 153.232 21.6497Z" fill="black"/>
<path d="M166.84 18.6577C170.334 18.6577 172.817 21.1132 172.817 24.5797C172.817 28.0462 170.334 30.5017 166.84 30.5017C165.514 30.5017 164.336 30.0683 163.41 29.3049L163.052 30.1302H160.148V14.9642H164.02V19.4212C164.841 18.926 165.788 18.6577 166.84 18.6577ZM166.314 27.097C167.766 27.097 168.861 26.0241 168.861 24.5797C168.861 23.1147 167.787 22.0417 166.314 22.0417C164.862 22.0417 163.768 23.1147 163.768 24.5797C163.768 26.0241 164.862 27.097 166.314 27.097Z" fill="black"/>
<path d="M177.921 30.5017C174.827 30.5017 172.954 28.8922 172.912 26.478H176.679C176.679 27.3034 177.269 27.6748 178.005 27.6748C178.573 27.6748 179.121 27.3859 179.121 26.8082C179.121 26.1685 178.258 25.9828 177.163 25.8177C175.396 25.5289 173.06 25.013 173.06 22.31C173.06 20.0815 175.017 18.6371 177.921 18.6371C180.804 18.6371 182.698 20.1434 182.74 22.3925H179.057C179.057 21.6909 178.573 21.3608 177.879 21.3608C177.248 21.3608 176.827 21.6703 176.827 22.1861C176.827 22.8052 177.69 22.9702 178.763 23.1559C180.573 23.4655 182.951 23.8369 182.951 26.6431C182.951 28.9747 180.952 30.5017 177.921 30.5017Z" fill="black"/>
<path d="M183.754 17.6054V14.3452H187.627V17.6054H183.754ZM183.733 30.1302V18.9879H187.648V30.1302H183.733Z" fill="black"/>
<path d="M195.218 26.7875H196.713V30.1302H194.019C191.514 30.1302 189.978 28.624 189.978 26.1479V21.9592H187.895V21.0513L192.988 15.7483H193.808V18.9879H196.65V21.9592H193.893V25.5082C193.893 26.2923 194.398 26.7875 195.218 26.7875Z" fill="black"/>
<path d="M209.093 24.4559C209.093 24.8067 209.072 25.1368 209.03 25.4876H200.591C200.844 26.7669 201.664 27.4272 202.906 27.4272C203.811 27.4272 204.59 27.0351 204.947 26.3749H208.862C208.062 28.9128 205.747 30.5017 202.906 30.5017C199.349 30.5017 196.74 27.9637 196.74 24.5591C196.74 21.1544 199.328 18.6371 202.906 18.6371C206.568 18.6371 209.093 21.1957 209.093 24.4559ZM202.906 21.6497C201.77 21.6497 200.97 22.248 200.654 23.3623H205.242C204.905 22.248 204.085 21.6497 202.906 21.6497Z" fill="black"/>
<path d="M214.2 30.5017C211.106 30.5017 209.233 28.8922 209.191 26.478H212.958C212.958 27.3034 213.547 27.6748 214.284 27.6748C214.852 27.6748 215.399 27.3859 215.399 26.8082C215.399 26.1685 214.536 25.9828 213.442 25.8177C211.674 25.5289 209.338 25.013 209.338 22.31C209.338 20.0815 211.295 18.6371 214.2 18.6371C217.083 18.6371 218.977 20.1434 219.019 22.3925H215.336C215.336 21.6909 214.852 21.3608 214.157 21.3608C213.526 21.3608 213.105 21.6703 213.105 22.1861C213.105 22.8052 213.968 22.9702 215.041 23.1559C216.851 23.4655 219.229 23.8369 219.229 26.6431C219.229 28.9747 217.23 30.5017 214.2 30.5017Z" fill="black"/>
</svg>
